<svg width="116" height="84" viewBox="0 0 116 84" fill="none" xmlns="http://www.w3.org/2000/svg">
<path d="M15.9687 83.7822H100.051C110.305 83.7822 115.383 78.7529 115.383 68.6943V15.5205C115.383 5.46188 110.305 0.383789 100.051 0.383789H15.9687C5.76362 0.383789 0.636719 5.46188 0.636719 15.5205V68.6943C0.636719 78.7529 5.76362 83.7822 15.9687 83.7822ZM8.49802 15.96C8.49802 10.8819 11.1835 8.24509 16.0664 8.24509H99.9535C104.739 8.24509 107.522 10.8819 107.522 15.96V19.8174H8.49802V15.96ZM16.0664 75.9209C11.1835 75.9209 8.49802 73.333 8.49802 68.2549V30.9014H107.522V68.2549C107.522 73.333 104.739 75.9209 99.9535 75.9209H16.0664ZM22.5605 66.6924H34.5234C37.4043 66.6924 39.3085 64.7393 39.3085 62.0049V52.9717C39.3085 50.1885 37.4043 48.2842 34.5234 48.2842H22.5605C19.6796 48.2842 17.7753 50.1885 17.7753 52.9717V62.0049C17.7753 64.7393 19.6796 66.6924 22.5605 66.6924Z" fill="#0066CC"/>
</svg>
